<svg width="1024" height="1024" viewBox="0 0 1024 1024" fill="none" xmlns="http://www.w3.org/2000/svg">
<rect width="1024" height="1024" rx="100" fill="url(#paint0_linear_1_2)"/>
<circle cx="548" cy="512" r="240" stroke="white" stroke-width="20"/>
<circle cx="548" cy="512" r="240" stroke="white" stroke-width="20"/>
<circle cx="548" cy="512" r="190" stroke="white" stroke-width="20"/>
<circle cx="548" cy="512" r="190" stroke="white" stroke-width="20"/>
<path d="M279.25 509.835C280.865 510.767 280.915 513.053 279.401 514.07L279.25 514.165L159.25 583.447C157.583 584.409 155.5 583.207 155.5 581.282V442.718C155.5 440.854 157.455 439.666 159.093 440.469L159.25 440.553L279.25 509.835Z" stroke="white" stroke-width="15"/>
<path d="M448.2 553V478.5H497.9V490.5H461.8V511.1H493.4V523.1H461.8V553H448.2ZM533.394 554.2C528.66 554.2 524.26 553.333 520.194 551.6C516.194 549.867 512.727 547.467 509.794 544.4C506.927 541.267 504.827 537.633 503.494 533.5L514.794 528.6C516.594 532.867 519.194 536.233 522.594 538.7C525.994 541.1 529.827 542.3 534.094 542.3C536.494 542.3 538.56 541.933 540.294 541.2C542.094 540.4 543.46 539.333 544.394 538C545.394 536.667 545.894 535.067 545.894 533.2C545.894 531 545.227 529.2 543.894 527.8C542.627 526.333 540.694 525.2 538.094 524.4L523.794 519.8C517.994 518 513.627 515.3 510.694 511.7C507.76 508.1 506.294 503.867 506.294 499C506.294 494.733 507.327 490.967 509.394 487.7C511.527 484.433 514.46 481.9 518.194 480.1C521.994 478.233 526.327 477.3 531.194 477.3C535.66 477.3 539.76 478.1 543.494 479.7C547.227 481.233 550.427 483.4 553.094 486.2C555.827 488.933 557.86 492.167 559.194 495.9L547.994 500.9C546.527 497.167 544.327 494.3 541.394 492.3C538.46 490.233 535.06 489.2 531.194 489.2C528.927 489.2 526.927 489.6 525.194 490.4C523.46 491.133 522.094 492.2 521.094 493.6C520.16 494.933 519.694 496.533 519.694 498.4C519.694 500.467 520.36 502.3 521.694 503.9C523.027 505.433 525.06 506.633 527.794 507.5L541.494 511.8C547.427 513.733 551.86 516.4 554.794 519.8C557.794 523.2 559.294 527.4 559.294 532.4C559.294 536.667 558.194 540.433 555.994 543.7C553.794 546.967 550.76 549.533 546.894 551.4C543.027 553.267 538.527 554.2 533.394 554.2ZM571.54 553V478.5H584.54L612.44 516.4H606.24L633.54 478.5H646.54V553H632.84V494L638.14 495.3L609.84 533H608.24L580.64 495.3L585.14 494V553H571.54Z" fill="white"/>
<defs>
<linearGradient id="paint0_linear_1_2" x1="0" y1="0" x2="1024" y2="1024" gradientUnits="userSpaceOnUse">
<stop stop-color="#FFAA85"/>
<stop offset="1" stop-color="#B3315F"/>
</linearGradient>
</defs>
</svg>
